<?xml version="1.0" encoding="UTF-8"?>
<svg id="Camada_4" data-name="Camada 4" xmlns="http://www.w3.org/2000/svg" viewBox="0 0 466.32 445.68">
  <defs>
    <style>
      .cls-1 {
        fill: #fff;
      }

      .cls-2 {
        opacity: .98;
      }

      .cls-3 {
        stroke-dasharray: 0 0 22.28 17.82;
      }

      .cls-3, .cls-4 {
        stroke-width: 4px;
      }

      .cls-3, .cls-4, .cls-5 {
        fill: none;
        stroke: #fff;
        stroke-miterlimit: 10;
      }

      .cls-5 {
        stroke-linecap: round;
        stroke-width: 3px;
      }
    </style>
  </defs>
  <g>
    <path class="cls-1" d="m185.04,99c-.75-1.05-.75-2.41,0-3.31,6.77-8.42,2.26-20.6-9.62-20.6h-11.28c-.75,0-1.35.6-1.35,1.35l-.45,15.49c0,1.35-1.2,2.41-2.56,2.41h-8.87c-1.35,0-2.56-1.05-2.56-2.41l-.45-15.64c0-.6-.6-1.2-1.2-1.2l-54.74-.45c-1.35,0-2.56-1.2-2.56-2.56v-8.87c0-1.35,1.2-2.56,2.56-2.56l54.74-.45c.6,0,1.2-.6,1.2-1.2l.45-15.64c0-1.35,1.2-2.56,2.56-2.56h8.87c1.35,0,2.56,1.2,2.56,2.56l.45,15.64c0,.6.6,1.2,1.2,1.2h10.53c13.54,0,26.32,7.82,27.67,23.01.75,8.57-2.41,15.94-8.27,21.51-1.05,1.05-2.86.9-3.76-.15l-5.11-5.56Z"/>
    <path class="cls-1" d="m126.53,178.1c-20.6,0-37.15-16.54-37.15-37.15s16.54-37,37.15-37,37.15,16.54,37.15,37-16.69,37.15-37.15,37.15Zm0-59.4c-12.33,0-22.41,10.08-22.41,22.26s10.08,22.41,22.41,22.41,22.26-10.08,22.26-22.41-9.93-22.26-22.26-22.26Z"/>
    <path class="cls-1" d="m149.54,237.05l-5.11-5.56c-.75-1.05-.6-2.41.15-3.31,7.07-9.78,1.2-21.05-9.62-21.05l-42.41-.15c-1.8,0-3.16-1.35-3.16-3.16v-7.52c0-1.8,1.35-3.16,3.16-3.16l50.53.75c7.82,0,11.88-1.35,15.34-1.8,1.35-.3,2.71.9,2.71,2.41l1.65,9.62c0,1.05-.75,2.11-1.8,2.56-1.35.45-1.65.45-1.65.45,4.66,9.93,2.56,21.96-5.87,30.08-1.2,1.05-2.86,1.05-3.91-.15Z"/>
    <path class="cls-1" d="m96.76,307.73c-4.66,6.92-11.73,10.83-20.75,10.83-26.62,0-34.74-39.7-21.05-62.56.9-1.2,2.56-1.5,3.76-.6l6.17,4.36c.9.75,1.35,2.11.75,3.16-7.07,15.34-3.01,41.81,10.38,41.81,12.18,0,13.38-15.64,13.38-22.41.15-20.3,16.69-36.85,37.15-36.85s38.2,17.75,37,39.1c-1.05,19.55-17.45,35.04-37,35.19-10.98,0-20.75-4.81-27.52-12.18-.6-.75-1.65-.6-2.26.15Zm7.52-27.97c-1.8,14.44,10.53,26.77,25.12,24.96,9.93-1.2,17.9-9.32,19.25-19.25,1.8-14.59-10.53-26.92-25.12-24.96-9.93,1.2-17.9,9.17-19.25,19.25Z"/>
    <path class="cls-1" d="m128.94,406.24c-4.21-.15-7.52-4.66-7.52-8.87v-46.02c0-.9-.75-1.5-1.65-1.35-11.58,2.86-15.94,12.48-15.94,22.86,0,5.87,2.86,12.93,7.22,17.75,1.05,1.05,1.05,2.86,0,3.91l-5.87,6.02c-1.05,1.2-3.01,1.2-4.06,0-8.72-8.87-11.73-18.5-11.73-27.97,0-23.31,19.25-40.61,43.01-37.45,20.75,2.71,33.09,21.05,30.98,41.81-1.8,16.84-18.05,29.48-30.98,29.48,0,0-1.5,0-3.46-.15Zm5.41-55.04c-.9-.3-1.96.3-1.96,1.35v38.65c0,1.05,1.05,1.65,1.96,1.35,7.67-2.26,16.39-7.67,16.39-19.7,0-11.28-7.97-19.55-16.39-21.66Z"/>
  </g>
  <line class="cls-5" x1="184.41" y1="134.04" x2="184.41" y2="406.38"/>
  <g>
    <g>
      <path class="cls-1" d="m223.96,320.5c.22.33.11.77-.22.96l-2.06,1.18c-.29.15-.66.07-.85-.22-1.7-2.54-4.24-3.65-7.41-3.17-4.24.63-5.64,3.87-2.54,6.15,3.54,2.65,10.17,1.07,11.98,6.78,1.73,5.49-3.02,8.95-8.77,8.95-4.13,0-7.37-1.58-9.43-4.97-.22-.33-.07-.74.26-.92l2.14-1.11c.26-.15.63-.11.81.15,1.44,1.88,3.43,3.1,6.19,3.1,6.6,0,7.3-5.16.7-6.56-1.95-.44-4.16-1-6.08-2.36-6.04-4.42-3.5-11.75,4.16-12.93,4.72-.7,8.22.66,11.13,4.97Z"/>
      <path class="cls-1" d="m244.82,332c0,5.05-4.05,9.1-9.1,9.1s-9.06-4.05-9.06-9.1,4.05-9.1,9.06-9.1,9.1,4.09,9.1,9.1Zm-14.56,0c0,3.02,2.47,5.49,5.45,5.49s5.49-2.47,5.49-5.49-2.47-5.45-5.49-5.45-5.45,2.43-5.45,5.45Z"/>
      <path class="cls-1" d="m252.04,314.05l.11,5.9v14.59l-.11,5.93c0,.33-.29.63-.63.63h-2.17c-.33,0-.63-.29-.63-.63l-.11-5.93v-14.59l.11-5.9c0-.37.29-.63.63-.63h2.17c.33,0,.63.26.63.63Z"/>
      <path class="cls-1" d="m257.09,323.56c0-.37.29-.66.66-.66h2.03c.37,0,.66.29.66.66l.15,9.8c0,5.75,8.22,5.75,8.22,0l.11-9.8c0-.37.29-.66.66-.66h2.06c.37,0,.66.29.66.66l.11,10.24-.04,6.3c0,.37-.29.66-.66.66h-2.21c-.33,0-.63-.26-.66-.63v-.92c-.88,1.22-2.25,1.88-4.16,1.88-5.27,0-7.74-3.83-7.74-7.74l.15-9.8Z"/>
      <path class="cls-1" d="m292.25,337.19c.29.26.29.7.04.96-1.7,1.84-4.24,2.98-7.11,2.95-5.01-.04-9.06-4.05-9.06-9.07s3.54-9.14,9.14-9.14c2.84,0,5.6,1.36,7.04,2.98.22.29.18.7-.07.96l-1.51,1.4c-.26.26-.66.26-.92.04-1.33-1.22-2.65-1.84-4.57-1.84-3.35,0-5.42,2.25-5.42,5.6s1.84,5.53,5.45,5.53c1.88,0,3.39-.74,4.64-1.81.26-.22.66-.18.88.04l1.47,1.4Z"/>
      <path class="cls-1" d="m313.96,332c0,5.05-4.05,9.1-9.1,9.1s-9.06-4.05-9.06-9.1,4.05-9.1,9.06-9.1,9.1,4.09,9.1,9.1Zm-14.56,0c0,3.02,2.47,5.49,5.45,5.49s5.49-2.47,5.49-5.49-2.47-5.45-5.49-5.45-5.45,2.43-5.45,5.45Z"/>
      <path class="cls-1" d="m335.15,331.41c-.04,1.03-1.14,1.84-2.17,1.84h-11.28c-.22,0-.37.18-.33.41.7,2.84,3.06,3.91,5.6,3.91,1.44,0,3.17-.7,4.35-1.77.26-.26.7-.26.96,0l1.47,1.44c.29.26.29.74,0,.99-2.17,2.14-4.53,2.88-6.85,2.88-5.71,0-9.95-4.72-9.18-10.54.66-5.09,5.16-8.11,10.24-7.59,4.13.44,7.22,4.42,7.22,7.59,0,0,0,.37-.04.85Zm-13.49-1.33c-.07.22.07.48.33.48h9.47c.26,0,.41-.26.33-.48-.55-1.88-1.88-4.02-4.83-4.02-2.76,0-4.79,1.95-5.31,4.02Z"/>
      <path class="cls-1" d="m351.8,334.43c2.1,6.63-9.06,9.36-12.86,3.39-.18-.37-.07-.81.26-.99l1.84-1c.26-.15.63-.07.85.18.81.92,2.28,1.58,3.57,1.58s3.06-.66,2.87-2.06c-.26-1.73-3.06-1.44-5.64-2.47-5.45-2.21-4.31-9.03,1.84-10.02,3.28-.48,5.93.55,7.7,3.32.22.33.11.77-.26,1l-1.62.96c-.29.15-.7.07-.92-.18-1.11-1.36-2.54-1.99-4.38-1.73-1.22.18-2.14.96-2.17,1.62-.37,4.05,7.41,1.58,8.92,6.41Z"/>
      <path class="cls-1" d="m392.75,323.19h2.17c.44,0,.74.41.63.81l-4.64,16.62c-.07.29-.29.48-.59.48h-2.47c-.29,0-.55-.18-.63-.44l-3.13-9.8-3.13,9.8c-.07.26-.33.44-.59.44h-2.47c-.29,0-.55-.18-.63-.48l-4.61-16.62c-.11-.41.18-.81.63-.81h2.14c.29,0,.52.18.63.44l3.09,11.42,3.21-9.29c.11-.26.33-.44.63-.44h2.25c.26,0,.52.18.59.44l3.24,9.29,3.1-11.42c.07-.26.33-.44.59-.44Z"/>
      <path class="cls-1" d="m415.67,331.41c-.04,1.03-1.14,1.84-2.17,1.84h-11.28c-.22,0-.37.18-.33.41.7,2.84,3.06,3.91,5.6,3.91,1.44,0,3.17-.7,4.35-1.77.26-.26.7-.26.96,0l1.47,1.44c.29.26.29.74,0,.99-2.17,2.14-4.53,2.88-6.85,2.88-5.71,0-9.95-4.72-9.18-10.54.66-5.09,5.16-8.11,10.24-7.59,4.13.44,7.22,4.42,7.22,7.59,0,0,0,.37-.04.85Zm-13.49-1.33c-.07.22.07.48.33.48h9.47c.26,0,.41-.26.33-.48-.55-1.88-1.88-4.02-4.83-4.02-2.76,0-4.79,1.95-5.31,4.02Z"/>
      <path class="cls-1" d="m419.58,315.19c0-.41.37-.74.77-.74h1.95c.41,0,.74.33.74.74l.04,10.02c0,.11.15.15.22.07,1.03-1.36,3.35-2.4,5.27-2.4,5.01,0,9.06,4.09,9.06,9.1s-4.05,9.1-9.06,9.1-8.84-3.83-9.07-8.66c-.26-4.79.07-17.25.07-17.25Zm3.61,16.1c-.44,3.54,2.51,6.52,6.08,6.08,2.39-.29,4.35-2.25,4.64-4.68.44-3.54-2.51-6.52-6.08-6.08-2.4.33-4.35,2.25-4.64,4.68Z"/>
      <path class="cls-1" d="m225.62,372.43c0,7.11-5.93,12.9-13.04,12.9h-7.3c-.33,0-.63-.26-.63-.63l-.11-5.71v-13.12l.11-5.71c0-.33.29-.63.63-.63h7.3c7.11,0,13.04,5.79,13.04,12.9Zm-3.68,0c0-5.16-4.2-9.47-9.36-9.47l-4.38-.04.04,2.95v13.12l-.04,2.95,4.38-.04c5.16,0,9.36-4.27,9.36-9.47Z"/>
      <path class="cls-1" d="m246.07,375.63c-.04,1.03-1.14,1.84-2.17,1.84h-11.28c-.22,0-.37.18-.33.41.7,2.84,3.06,3.91,5.6,3.91,1.44,0,3.17-.7,4.35-1.77.26-.26.7-.26.96,0l1.47,1.44c.29.26.29.74,0,1-2.17,2.14-4.53,2.87-6.85,2.87-5.71,0-9.95-4.72-9.18-10.54.66-5.08,5.16-8.11,10.24-7.59,4.13.44,7.22,4.42,7.22,7.59,0,0,0,.37-.04.85Zm-13.49-1.33c-.07.22.07.48.33.48h9.47c.26,0,.41-.26.33-.48-.55-1.88-1.88-4.02-4.83-4.02-2.76,0-4.79,1.95-5.31,4.02Z"/>
      <path class="cls-1" d="m262.73,378.65c2.1,6.63-9.06,9.36-12.86,3.39-.18-.37-.07-.81.26-1l1.84-1c.26-.15.63-.07.85.18.81.92,2.28,1.58,3.57,1.58s3.06-.66,2.87-2.06c-.26-1.73-3.06-1.44-5.64-2.47-5.45-2.21-4.31-9.03,1.84-10.02,3.28-.48,5.93.55,7.7,3.32.22.33.11.77-.26,1l-1.62.96c-.29.15-.7.07-.92-.18-1.11-1.36-2.54-1.99-4.38-1.73-1.22.18-2.14.96-2.17,1.62-.37,4.05,7.41,1.58,8.92,6.41Z"/>
      <path class="cls-1" d="m272.35,363.21c0,1.25-1.07,2.29-2.32,2.29s-2.32-1.03-2.32-2.29,1.03-2.32,2.32-2.32,2.32,1.03,2.32,2.32Zm-1.25,3.91h-2.14c-.37,0-.66.29-.66.66l-.11,5.9v5.08l.11,5.93c0,.33.29.63.66.63h2.14c.37,0,.63-.29.63-.63l.15-5.93v-5.08l-.15-5.9c0-.37-.26-.66-.63-.66Z"/>
      <path class="cls-1" d="m291.66,383.52c1.7,1.14,2.65,2.87,2.65,5.08,0,6.52-9.73,8.51-15.33,5.16-.29-.22-.37-.63-.15-.92l1.07-1.51c.18-.22.52-.33.77-.18,3.76,1.73,10.24.74,10.24-2.54,0-2.98-3.83-3.28-5.49-3.28-4.98-.04-9.03-4.09-9.03-9.1s4.35-9.36,9.58-9.07c4.79.26,8.59,4.27,8.62,9.07,0,2.69-1.18,5.08-2.98,6.74-.18.15-.15.41.04.55Zm-6.85-1.84c3.54.44,6.56-2.58,6.12-6.15-.29-2.43-2.28-4.39-4.72-4.72-3.57-.44-6.6,2.58-6.12,6.15.29,2.43,2.25,4.39,4.72,4.72Z"/>
      <path class="cls-1" d="m313.62,384.66c0,.37-.29.66-.63.66h-2.06c-.37,0-.66-.29-.66-.66l-.15-9.8c0-5.75-8.22-5.75-8.22,0l-.11,9.8c0,.37-.29.66-.66.66h-2.06c-.37,0-.66-.29-.66-.66l-.11-10.21.04-6.34c0-.37.29-.66.66-.66h2.21c.37,0,.63.29.66.63v.96c.88-1.22,2.25-1.92,4.16-1.92,5.27,0,7.74,3.83,7.74,7.74l-.15,9.8Z"/>
      <path class="cls-1" d="m351.14,383.52c1.7,1.14,2.65,2.87,2.65,5.08,0,6.52-9.73,8.51-15.33,5.16-.29-.22-.37-.63-.15-.92l1.07-1.51c.18-.22.52-.33.77-.18,3.76,1.73,10.24.74,10.24-2.54,0-2.98-3.83-3.28-5.49-3.28-4.98-.04-9.03-4.09-9.03-9.1s4.35-9.36,9.58-9.07c4.79.26,8.59,4.27,8.62,9.07,0,2.69-1.18,5.08-2.98,6.74-.18.15-.15.41.04.55Zm-6.85-1.84c3.54.44,6.56-2.58,6.12-6.15-.29-2.43-2.28-4.39-4.72-4.72-3.57-.44-6.6,2.58-6.12,6.15.29,2.43,2.25,4.39,4.72,4.72Z"/>
      <path class="cls-1" d="m368.9,370.58l-1.36,1.25c-.26.18-.59.15-.81-.04-2.4-1.73-5.16-.29-5.16,2.36l-.04,10.39c0,.44-.33.77-.77.77h-1.84c-.44,0-.77-.33-.77-.77l.18-12.38c0-1.92-.33-2.91-.44-3.76-.07-.33.22-.66.59-.66l2.36-.41c.26,0,.52.18.63.44.11.33.11.41.11.41,2.43-1.14,5.38-.63,7.37,1.44.26.29.26.7-.04.96Z"/>
      <path class="cls-1" d="m389.06,384.59c0,.41-.33.74-.77.74h-1.95c-.37,0-.7-.33-.74-.74l-.04-1.62c0-.11-.11-.15-.18-.07-1,1.36-3.35,2.43-5.27,2.43-5.05,0-9.1-4.05-9.1-9.1s4.05-9.1,9.1-9.1,8.81,3.83,9.03,8.66c.26,4.83-.07,8.81-.07,8.81Zm-3.61-7.66c.48-3.54-2.51-6.52-6.08-6.08-2.4.33-4.35,2.25-4.64,4.68-.44,3.54,2.54,6.52,6.08,6.08,2.4-.29,4.35-2.25,4.64-4.68Z"/>
      <path class="cls-1" d="m405.68,361.89c-.26.18-.59.18-.81,0-2.06-1.66-5.05-.55-5.05,2.36v2.76c0,.18.15.33.33.33l3.8.11c.33,0,.59.29.59.63v2.17c0,.33-.26.63-.59.63l-3.83.11c-.15,0-.29.15-.29.29l-.11,13.41c0,.33-.29.63-.63.63h-2.17c-.33,0-.63-.29-.63-.63l-.11-13.41c0-.15-.15-.29-.29-.29l-3.83-.11c-.33,0-.63-.29-.63-.63v-2.17c0-.33.29-.63.63-.63l3.83-.11c.15,0,.29-.15.29-.29v-2.58c0-3.32,1.92-6.45,5.64-6.78,2.1-.18,3.91.59,5.27,2.03.26.26.22.7-.04.92l-1.36,1.25Z"/>
      <path class="cls-1" d="m411.91,363.21c0,1.25-1.07,2.29-2.32,2.29s-2.32-1.03-2.32-2.29,1.03-2.32,2.32-2.32,2.32,1.03,2.32,2.32Zm-1.25,3.91h-2.14c-.37,0-.66.29-.66.66l-.11,5.9v5.08l.11,5.93c0,.33.29.63.66.63h2.14c.37,0,.63-.29.63-.63l.15-5.93v-5.08l-.15-5.9c0-.37-.26-.66-.63-.66Z"/>
      <path class="cls-1" d="m432.1,381.42c.29.26.29.7.04.96-1.7,1.84-4.24,2.99-7.11,2.95-5.01-.04-9.06-4.05-9.06-9.07s3.54-9.14,9.14-9.14c2.84,0,5.6,1.36,7.04,2.99.22.29.18.7-.07.96l-1.51,1.4c-.26.26-.66.26-.92.04-1.33-1.22-2.65-1.84-4.57-1.84-3.35,0-5.42,2.25-5.42,5.6s1.84,5.53,5.45,5.53c1.88,0,3.39-.74,4.64-1.8.26-.22.66-.18.88.04l1.47,1.4Z"/>
      <path class="cls-1" d="m453.81,376.22c0,5.05-4.05,9.1-9.1,9.1s-9.06-4.05-9.06-9.1,4.05-9.1,9.06-9.1,9.1,4.09,9.1,9.1Zm-14.56,0c0,3.02,2.47,5.49,5.45,5.49s5.49-2.47,5.49-5.49-2.47-5.45-5.49-5.45-5.45,2.43-5.45,5.45Z"/>
    </g>
    <path class="cls-1" d="m387.47,359.79l-4.5,5.27h-2.32l3.24-5.27h3.57Z"/>
    <path class="cls-1" d="m281.28,343.48l3.43-3.55h1.77l-2.47,3.55h-2.73Z"/>
  </g>
  <g>
    <polyline class="cls-4" points="330.56 275.61 330.56 288.11 318.06 288.11"/>
    <line class="cls-3" x1="300.24" y1="288.11" x2="228.95" y2="288.11"/>
    <polyline class="cls-4" points="220.04 288.11 207.54 288.11 207.54 275.61"/>
    <line class="cls-3" x1="207.54" y1="257.79" x2="207.54" y2="186.5"/>
    <polyline class="cls-4" points="207.54 177.59 207.54 165.09 220.04 165.09"/>
    <line class="cls-3" x1="237.86" y1="165.09" x2="309.15" y2="165.09"/>
    <polyline class="cls-4" points="318.06 165.09 330.56 165.09 330.56 177.59"/>
    <line class="cls-3" x1="330.56" y1="195.41" x2="330.56" y2="266.7"/>
  </g>
  <g class="cls-2">
    <path class="cls-1" d="m262.12,199.5c0,12.11-10.1,21.96-22.21,21.96h-12.42c-.56,0-1.07-.44-1.07-1.07l-.19-9.73v-22.34l.19-9.73c0-.56.5-1.07,1.07-1.07h12.42c12.11,0,22.21,9.85,22.21,21.96Zm-6.27,0c0-8.78-7.15-16.13-15.94-16.13l-7.47-.06.06,5.02v22.34l-.06,5.02,7.47-.06c8.78,0,15.94-7.28,15.94-16.13Z"/>
    <path class="cls-1" d="m309.99,178.8v3.58c0,.56-.44,1-1.07,1l-20.52.19.06,4.77v9.29l14.24.13c.56.06,1.07.5,1.07,1.07v3.58c0,.56-.5,1-1.07,1l-14.24.19v7.09l-.06,4.77,20.52.19c.63,0,1.07.44,1.07,1v3.58c0,.56-.44,1.07-1.07,1.07l-25.47.19c-.56,0-1.07-.44-1.07-1.07l-.19-9.73v-22.34l.19-9.73c0-.56.5-1.07,1.07-1.07l25.47.19c.56,0,1.07.44,1.07,1.07Z"/>
    <path class="cls-1" d="m262.93,236.08l-3.83,10.35-4.14,10.54-7.91,19.89c-.25.63-.82,1-1.51,1h-1.82c-.63,0-1.25-.38-1.44-1l-7.97-19.89-4.14-10.54-3.83-10.35c-.38-1,.38-2.13,1.44-2.13h3.14c.63,0,1.19.44,1.44,1l4.89,11.48,4.33,10.54,3.07,8.09,3.08-8.09,4.33-10.54,4.83-11.48c.25-.56.82-1,1.44-1h3.14c1.07,0,1.82,1.13,1.44,2.13Z"/>
  </g>
  <path class="cls-1" d="m304.19,247.39v17.38h-17.27v-17.38h17.27Z"/>
</svg>